<svg fill="none" height="14" viewBox="0 0 24 14" width="24" xmlns="http://www.w3.org/2000/svg"><g fill="#000" opacity=".1"><path d="m4 10h2v16h-2z" transform="matrix(0 -1 1 0 -6 14)"/><path d="m2 12h2v20h-2z" transform="matrix(0 -1 1 0 -10 14)"/><path d="m0 14h2v24h-2z" transform="matrix(0 -1 1 0 -14 14)"/><path d="m6 8h2v12h-2z" transform="matrix(0 -1 1 0 -2 14)"/><path d="m8 6h2v8h-2z" transform="matrix(0 -1 1 0 2 14)"/><path d="m10 4h2v4h-2z" transform="matrix(0 -1 1 0 6 14)"/></g><g fill="#fff"><path d="m4 7.99998h2v16h-2z" transform="matrix(0 -1 1 0 -3.99998 11.99998)"/><path d="m2 9.99998h2v20h-2z" transform="matrix(0 -1 1 0 -7.99998 11.99998)"/><path d="m0 12h2v24h-2z" transform="matrix(0 -1 1 0 -12 12)"/><path d="m6 5.99998h2v12h-2z" transform="matrix(0 -1 1 0 .00002 11.99998)"/><path d="m8 3.99998h2v8h-2z" transform="matrix(0 -1 1 0 4.00002 11.99998)"/><path d="m10 1.99998h2v4h-2z" transform="matrix(0 -1 1 0 8.00002 11.99998)"/></g></svg>