<svg fill="none" height="14" viewBox="0 0 24 14" width="24" xmlns="http://www.w3.org/2000/svg"><g fill="#000" opacity=".1"><path d="m20 6h2v16h-2z" transform="matrix(0 1 -1 0 26 -14)"/><path d="m22 4h2v20h-2z" transform="matrix(0 1 -1 0 26 -18)"/><path d="m24 2h2v24h-2z" transform="matrix(0 1 -1 0 26 -22)"/><path d="m18 8h2v12h-2z" transform="matrix(0 1 -1 0 26 -10)"/><path d="m16 10h2v8h-2z" transform="matrix(0 1 -1 0 26 -6)"/><path d="m14 12h2v4h-2z" transform="matrix(0 1 -1 0 26 -2)"/></g><g fill="#fff"><path d="m20 4h2v16h-2z" transform="matrix(0 1 -1 0 24 -16)"/><path d="m22 2h2v20h-2z" transform="matrix(0 1 -1 0 24 -20)"/><path d="m24 0h2v24h-2z" transform="matrix(0 1 -1 0 24 -24)"/><path d="m18 6h2v12h-2z" transform="matrix(0 1 -1 0 24 -12)"/><path d="m16 8h2v8h-2z" transform="matrix(0 1 -1 0 24 -8)"/><path d="m14 10h2v4h-2z" transform="matrix(0 1 -1 0 24 -4)"/></g></svg>